{"title":"Sing (2016) BRRIP 1080P NO CINAVIA","magnet":"magnet:?xt=urn:btih:c81cfbfbbafcd1f9be7774c8b97aea10eec8d21b&dn=Sing+%282016%29+BRRIP+1080P+NO+CINAVIA&tr=udp%3A%2F%2Ftracker.leechers-paradise.org%3A6969&tr=udp%3A%2F%2Fzer0day.ch%3A1337&tr=udp%3A%2F%2Fopen.demonii.com%3A1337&tr=udp%3A%2F%2Ftracker.coppersurfer.tk%3A6969&tr=udp%3A%2F%2Fexodus.desync.com%3A6969","uploader":"jmanwf","categoryP":"video","categoryS":"hd___movies","size":"5759428965","seeders":"3","leechers":"12","description":"In a city of humanoid animals, a hustling theater impresario&apos;s attempt to save his theater with a singing competition becomes grander than he anticipates even as its finalists&apos; find that their lives will never be the same.\r\n\r\n\r\nFormat : Matroska\r\nFormat version : Version 4 / Version 2\r\nFile size : 5.36 GiB\r\nDuration : 1 h 48 min\r\nOverall bit rate mode : Variable\r\nOverall bit rate : 7 084 kb/s\r\nEncoded date : UTC 2017-05-02 11:24:47\r\nWriting application : mkvmerge v11.0.0 (&apos;Alive&apos;) 64bit\r\nWriting library : libebml v1.3.4 + libmatroska v1.4.5\r\n\r\nVideo\r\nID : 1\r\nFormat : AVC\r\nFormat/Info : Advanced Video Codec\r\nFormat profile : <a class=\"__cf_email__\" href=\"/cdn-cgi/l/email-protection\" data-cfemail=\"145c7d737c5458203a25\">[email&#xA0;protected]</a><script data-cfhash=\"f9e31\" type=\"text/javascript\">/* <![CDATA[ */!function(t,e,r,n,c,a,p){try{t=document.currentScript||function(){for(t=document.getElementsByTagName('script'),e=t.length;e--;)if(t[e].getAttribute('data-cfhash'))return t[e]}();if(t&&(c=t.previousSibling)){p=t.parentNode;if(a=c.getAttribute('data-cfemail')){for(e='',r='0x'+a.substr(0,2)|0,n=2;a.length-n;n+=2)e+='%'+('0'+('0x'+a.substr(n,2)^r).toString(16)).slice(-2);p.replaceChild(document.createTextNode(decodeURIComponent(e)),c)}p.removeChild(t)}}catch(u){}}()/* ]]> */</script>\r\nFormat settings, CABAC : Yes\r\nFormat settings, ReFrames : 3 frames\r\nCodec ID : V_MPEG4/ISO/AVC\r\nDuration : 1 h 48 min\r\nBit rate mode : Variable\r\nBit rate : 6 700 kb/s\r\nMaximum bit rate : 30.0 Mb/s\r\nWidth : 1 920 pixels\r\nHeight : 1 080 pixels\r\nDisplay aspect ratio : 16:9\r\nFrame rate mode : Constant\r\nFrame rate : 23.976 (24000/1001) FPS\r\nColor space : YUV\r\nChroma subsampling : 4:2:0\r\nBit depth : 8 bits\r\nScan type : Progressive\r\nBits/(Pixel*Frame) : 0.135\r\nStream size : 5.07 GiB (95%)\r\nLanguage : English\r\nDefault : Yes\r\nForced : No\r\nColor range : Limited\r\nColor primaries : BT.709\r\nTransfer characteristics : BT.709\r\nMatrix coefficients : BT.709\r\n\r\nAudio\r\nID : 2\r\nFormat : AC-3\r\nFormat/Info : Audio Coding 3\r\nMode extension : CM (complete main)\r\nFormat settings, Endianness : Big\r\nCodec ID : A_AC3\r\nDuration : 1 h 47 min\r\nBit rate mode : Constant\r\nBit rate : 384 kb/s\r\nChannel(s) : 6 channels\r\nChannel positions : Front: L C R, Side: L R, LFE\r\nSampling rate : 48.0 kHz\r\nFrame rate : 31.250 FPS (1536 spf)\r\nBit depth : 16 bits\r\nCompression mode : Lossy\r\nStream size : 296 MiB (5%)\r\nLanguage : English\r\nDefault : Yes\r\nForced : No\r\n\r\nText\r\nID : 3\r\nFormat : UTF-8\r\nCodec ID : S_TEXT/UTF8\r\nCodec ID/Info : UTF-8 Plain Text\r\nDuration : 1 h 47 min\r\nBit rate : 113 b/s\r\nCount of elements : 2406\r\nStream size : 89.3 KiB (0%)\r\nLanguage : English\r\nDefault : Yes\r\nForced : No\r\n\r\n\r\n\r\n <a href=\"\nhttp://www.imdb.com/title/tt3470600/\" rel=\"nofollow\" target=\"_NEW\">\nhttp://www.imdb.com/title/tt3470600/</a>","last_updated":"2017-05-06T18:05:47.410Z","parsed":{"xt":"urn:btih:c81cfbfbbafcd1f9be7774c8b97aea10eec8d21b","dn":"Sing (2016) BRRIP 1080P NO CINAVIA","tr":["udp://exodus.desync.com:6969","udp://open.demonii.com:1337","udp://tracker.coppersurfer.tk:6969","udp://tracker.leechers-paradise.org:6969","udp://zer0day.ch:1337"],"infoHash":"c81cfbfbbafcd1f9be7774c8b97aea10eec8d21b","infoHashBuffer":{"type":"Buffer","data":[200,28,251,251,186,252,209,249,190,119,116,200,185,122,234,16,238,200,210,27]},"name":"Sing (2016) BRRIP 1080P NO CINAVIA","announce":["udp://exodus.desync.com:6969","udp://open.demonii.com:1337","udp://tracker.coppersurfer.tk:6969","udp://tracker.leechers-paradise.org:6969","udp://zer0day.ch:1337"],"urlList":[]}}